# Exported from ProBuilder
# http://www.procore3d.com/probuilder
# 2019-02-18 10:11:41 PM

mtllib ./Ceiling_S.mtl
o Ceiling_S

g Ceiling_S
v 3.021494 5 3.501953
v -2.978516 5 3.501953
v 3.021494 5.5 3.501953
v -2.978516 5.5 3.501953
v -2.978516 5 3.501953
v -2.978516 5 -3.498047
v -2.978516 5.5 3.501953
v -2.978516 5.5 -3.498047
v -2.978516 5 -3.498047
v 3.021475 5 -3.498047
v -2.978516 5.5 -3.498047
v 3.021475 5.5 -3.498047
v 3.021475 5 -3.498047
v 3.021494 5 3.501953
v 3.021475 5.5 -3.498047
v 3.021494 5.5 3.501953
v 3.021494 5.5 3.501953
v -2.978516 5.5 3.501953
v 3.021475 5.5 -3.498047
v -2.978516 5.5 -3.498047
v 3.021475 5 -3.498047
v -2.978516 5 -3.498047
v 3.021494 5 3.501953
v -2.978516 5 3.501953

vn -3.973637E-08 0 1
vn -5.960453E-08 2.384186E-07 1
vn -5.960453E-08 2.384186E-07 1
vn -7.94727E-08 4.768372E-07 1
vn -1 0 0
vn -1 0 0
vn -1 0 0
vn -1 0 0
vn 0 0 -1
vn 0 0 -1
vn 0 0 -1
vn 0 0 -1
vn 1 -4.768372E-07 -2.724784E-06
vn 1 -2.384186E-07 -2.707754E-06
vn 1 -2.384186E-07 -2.707754E-06
vn 1 0 -2.690724E-06
vn 7.947274E-08 1 -6.811981E-08
vn 3.973637E-08 1 -1.021795E-07
vn 3.973637E-08 1 -1.021795E-07
vn 0 1 -1.362392E-07
vn 0 -1 6.81196E-08
vn -3.973636E-08 -1 1.021794E-07
vn -3.973636E-08 -1 1.021794E-07
vn -7.947273E-08 -1 1.362392E-07

vt -0.0004060069 -0.5
vt -6.000416 -0.4999995
vt -0.0004060069 0
vt -6.000416 4.768372E-07
vt 0.5019531 -0.4999995
vt -6.498047 -0.5000005
vt 0.5019529 4.768372E-07
vt -6.498047 -4.768372E-07
vt 6.000416 -0.5000005
vt 0.0004251003 -0.5000005
vt 6.000416 -4.768372E-07
vt 0.0004248619 -4.768372E-07
vt 6.498047 -0.5000005
vt -0.5019534 -0.5
vt 6.498047 -4.770313E-07
vt -0.5019534 -1.942609E-10
vt 0.0004060268 0.5019534
vt 6.000416 0.5019529
vt 0.0004248619 -6.498047
vt 6.000416 -6.498047
vt -0.0004251003 -6.498047
vt -6.000416 -6.498047
vt -0.0004060268 0.5019533
vt -6.000416 0.5019531

g Ceiling_S
usemtl Ceiling
f 3/3/3 4/4/4 2/2/2 1/1/1
f 7/7/7 8/8/8 6/6/6 5/5/5
f 11/11/11 12/12/12 10/10/10 9/9/9
f 15/15/15 16/16/16 14/14/14 13/13/13
f 19/19/19 20/20/20 18/18/18 17/17/17
f 23/23/23 24/24/24 22/22/22 21/21/21

